# xmcd
#
# Track frame offsets:
#	150
#	14634
#	27475
#	42941
#	54579
#	71541
#	82505
#	95191
#	109381
#	123421
#	136187
#	148650
#	164413
#	177023
#	188434
#	202321
#
# Disc length: 2822 seconds
#
# Revision: 0
# Processed by: cddbd v1.5.2PL0 Copyright (c) Steve Scherf et al.
# Submitted via: dBpowerAMP V4.0
#
DISCID=e30b0410
DTITLE=Varios - Musica Verecruzana
DYEAR=1900
DGENRE=Folklore
TTITLE0=Veracruz
TTITLE1=La Bamba
TTITLE2=Maria Chuchena
TTITLE3=El Colás
TTITLE4=El Siquisirí
TTITLE5=La Petenera
TTITLE6=Balajú
TTITLE7=El Ahualulco
TTITLE8=El Pájaro Cu
TTITLE9=El Gusto
TTITLE10=La Vieja
TTITLE11=La Guacamaya
TTITLE12=Mi Comadre Juana
TTITLE13=La Cecilia
TTITLE14=Un Sueño
TTITLE15=Noche Criolla
EXTD=
EXTT0=
EXTT1=
EXTT2=
EXTT3=
EXTT4=
EXTT5=
EXTT6=
EXTT7=
EXTT8=
EXTT9=
EXTT10=
EXTT11=
EXTT12=
EXTT13=
EXTT14=
EXTT15=
PLAYORDER=
